<?xml version="1.0" standalone="no"?>
<!DOCTYPE svg PUBLIC "-//W3C//DTD SVG 20010904//EN"
 "http://www.w3.org/TR/2001/REC-SVG-20010904/DTD/svg10.dtd">
<svg version="1.0" xmlns="http://www.w3.org/2000/svg"
 width="1280.000000pt" height="1223.000000pt" viewBox="0 0 1280.000000 1223.000000"
 preserveAspectRatio="xMidYMid meet">
<metadata>
Created by potrace 1.15, written by Peter Selinger 2001-2017
</metadata>
<g transform="translate(0.000000,1223.000000) scale(0.100000,-0.100000)"
fill="#000000" stroke="none">
<path d="M5890 12223 c-865 -40 -1636 -270 -2219 -662 -847 -570 -1373 -1513
-1516 -2716 -17 -141 -26 -325 -28 -558 l-2 -149 -115 -52 c-229 -104 -524
-283 -740 -449 -861 -660 -1302 -1540 -1267 -2527 7 -189 10 -219 63 -620 114
-859 234 -1334 446 -1756 33 -66 48 -86 72 -94 16 -5 31 -10 33 -10 2 0 -10
26 -26 57 -129 258 -218 573 -252 892 -17 166 -7 523 20 680 93 544 323 1003
696 1389 66 69 163 161 215 204 278 234 659 430 1007 518 584 148 1195 99
1728 -137 302 -133 533 -292 783 -537 133 -131 149 -151 234 -291 106 -175
118 -191 83 -111 -95 216 -116 495 -53 731 103 391 409 701 799 811 180 51
284 83 269 84 -73 3 -308 33 -391 50 -329 67 -654 202 -924 383 -181 122 -416
338 -558 513 -263 326 -459 765 -531 1189 -41 240 -46 619 -11 845 139 907
679 1660 1470 2050 258 128 546 213 810 240 190 20 204 22 175 31 -25 7 -143
8 -270 2z"/>
<path d="M6628 12217 c-54 -15 -47 -27 16 -27 165 0 499 -88 766 -202 600
-256 1049 -653 1350 -1195 161 -289 278 -670 311 -1008 17 -177 7 -529 -20
-680 -50 -280 -112 -476 -230 -721 -339 -700 -951 -1199 -1721 -1401 -124 -32
-150 -36 -320 -41 l-185 -5 87 -13 c400 -59 755 -351 892 -734 89 -246 92
-457 11 -771 -25 -97 -45 -180 -45 -184 0 -5 28 32 62 81 133 193 318 392 498
536 285 228 645 404 995 488 222 53 327 65 595 65 320 0 522 -31 799 -120 851
-275 1518 -952 1776 -1802 78 -257 105 -426 112 -708 8 -316 -24 -551 -114
-830 -37 -115 -120 -316 -154 -374 -11 -18 -18 -35 -16 -37 23 -23 221 342
344 636 188 449 281 790 345 1270 17 127 17 584 0 720 -72 574 -265 1076 -593
1544 -355 503 -889 984 -1439 1295 -69 39 -131 74 -138 78 -10 6 -10 33 -1
128 17 177 6 622 -20 810 -156 1145 -729 1987 -1694 2491 -192 99 -788 359
-1062 461 -368 138 -745 230 -1010 248 -49 3 -106 7 -125 9 -19 2 -52 -1 -72
-7z"/>
<path d="M6155 9524 c-319 -30 -476 -53 -685 -99 -484 -108 -916 -299 -1302
-576 -6 -4 391 -829 408 -848 2 -2 59 32 126 76 585 379 1075 507 1878 490
355 -7 596 -43 858 -128 256 -83 541 -232 720 -377 24 -19 45 -33 47 -31 14
15 385 811 381 818 -9 14 -220 152 -311 203 -418 236 -849 378 -1358 449 -119
17 -213 22 -437 24 -157 2 -303 1 -325 -1z"/>
<path d="M9313 6048 c14 -59 29 -443 24 -623 -10 -385 -59 -534 -349 -1061
-255 -463 -397 -664 -638 -904 -203 -204 -450 -375 -708 -491 -59 -26 -106
-53 -104 -60 1 -6 115 -175 253 -374 l250 -364 67 32 c406 195 721 423 1047
758 291 299 504 603 695 994 268 548 402 1045 425 1580 6 135 -8 461 -21 474
-5 5 -814 60 -898 60 -45 1 -48 0 -43 -21z"/>
<path d="M2930 5963 c-234 -19 -426 -36 -428 -38 -13 -12 -23 -256 -18 -445
18 -688 209 -1303 601 -1929 401 -641 726 -979 1202 -1249 87 -50 316 -163
396 -196 l37 -15 261 390 c143 215 259 392 257 394 -2 1 -106 55 -233 119
-353 178 -511 283 -670 441 -138 137 -227 266 -498 721 -293 493 -433 899
-456 1324 -7 139 -1 340 14 463 7 56 7 57 -16 56 -13 -1 -215 -17 -449 -36z"/>
<path d="M5400 4846 c0 -4 15 -37 34 -74 126 -253 215 -573 247 -897 14 -147
7 -437 -16 -585 -131 -852 -658 -1566 -1440 -1950 -400 -197 -770 -283 -1215
-283 -446 0 -840 93 -1229 291 -371 188 -706 482 -935 820 -57 85 -77 84 -32
-1 37 -68 178 -284 278 -424 625 -879 1405 -1430 2270 -1607 264 -54 342 -61
678 -61 344 0 447 10 735 66 497 98 1023 299 1456 558 l113 67 86 -61 c171
-124 429 -273 635 -367 860 -394 1700 -443 2470 -143 320 125 543 259 942 567
744 573 1082 899 1353 1303 43 63 53 86 51 114 -1 19 -3 37 -5 38 -2 2 -20
-23 -41 -54 -229 -348 -590 -668 -978 -867 -364 -186 -708 -273 -1124 -283
-253 -6 -378 4 -593 47 -1059 213 -1883 1063 -2064 2130 -82 480 -14 1071 161
1400 31 58 69 130 85 160 25 45 26 50 6 25 -297 -379 -742 -537 -1198 -424
-213 53 -367 148 -582 357 -81 80 -148 142 -148 138z"/>
</g>
</svg>
